<svg width="33" height="22" viewBox="0 0 33 22" fill="none" xmlns="http://www.w3.org/2000/svg">
<path d="M5.89892 11C5.89892 10.6758 6.02301 10.365 6.24391 10.1358C6.46481 9.90655 6.76442 9.77778 7.07681 9.77778H9.43261V7.33333C9.43261 7.00918 9.55671 6.6983 9.77761 6.46909C9.99851 6.23988 10.2981 6.11111 10.6105 6.11111C10.9229 6.11111 11.2225 6.23988 11.4434 6.46909C11.6643 6.6983 11.7884 7.00918 11.7884 7.33333V9.77778H14.1442C14.4566 9.77778 14.7562 9.90655 14.9771 10.1358C15.198 10.365 15.3221 10.6758 15.3221 11C15.3221 11.3242 15.198 11.635 14.9771 11.8642C14.7562 12.0935 14.4566 12.2222 14.1442 12.2222H11.7884V14.6667C11.7884 14.9908 11.6643 15.3017 11.4434 15.5309C11.2225 15.7601 10.9229 15.8889 10.6105 15.8889C10.2981 15.8889 9.99851 15.7601 9.77761 15.5309C9.55671 15.3017 9.43261 14.9908 9.43261 14.6667V12.2222H7.07681C6.76442 12.2222 6.46481 12.0935 6.24391 11.8642C6.02301 11.635 5.89892 11.3242 5.89892 11ZM23.5556 14.6667C23.5556 15.315 23.3074 15.9367 22.8656 16.3951C22.4238 16.8536 21.8246 17.1111 21.1998 17.1111C20.575 17.1111 19.9758 16.8536 19.534 16.3951C19.0922 15.9367 18.844 15.315 18.844 14.6667C18.844 14.0184 19.0922 13.3966 19.534 12.9382C19.9758 12.4798 20.575 12.2222 21.1998 12.2222C21.8246 12.2222 22.4238 12.4798 22.8656 12.9382C23.3074 13.3966 23.5556 14.0184 23.5556 14.6667V14.6667ZM23.5556 9.77778C24.1804 9.77778 24.7796 9.52024 25.2214 9.06182C25.6632 8.60339 25.9114 7.98164 25.9114 7.33333C25.9114 6.68503 25.6632 6.06327 25.2214 5.60485C24.7796 5.14643 24.1804 4.88889 23.5556 4.88889C22.9308 4.88889 22.3316 5.14643 21.8898 5.60485C21.448 6.06327 21.1998 6.68503 21.1998 7.33333C21.1998 7.98164 21.448 8.60339 21.8898 9.06182C22.3316 9.52024 22.9308 9.77778 23.5556 9.77778V9.77778ZM0 11C0 8.08262 1.1169 5.28473 3.10499 3.22183C5.09308 1.15893 7.7895 0 10.6011 0H22.3989C25.2105 0 27.9069 1.15893 29.895 3.22183C31.8831 5.28473 33 8.08262 33 11C33 13.9174 31.8831 16.7153 29.895 18.7782C27.9069 20.8411 25.2105 22 22.3989 22H10.6011C7.7895 22 5.09308 20.8411 3.10499 18.7782C1.1169 16.7153 0 13.9174 0 11V11ZM10.6011 2.44444C8.4143 2.44444 6.31708 3.34583 4.77079 4.95031C3.22449 6.55479 2.3558 8.73093 2.3558 11C2.3558 13.2691 3.22449 15.4452 4.77079 17.0497C6.31708 18.6542 8.4143 19.5556 10.6011 19.5556H22.3989C24.5857 19.5556 26.6829 18.6542 28.2292 17.0497C29.7755 15.4452 30.6442 13.2691 30.6442 11C30.6442 8.73093 29.7755 6.55479 28.2292 4.95031C26.6829 3.34583 24.5857 2.44444 22.3989 2.44444H10.6011V2.44444Z" fill="#7E8CAC"/>
</svg>
